# xmcd
#
# Track frame offsets: 
#        150
#        18826
#        34247
#        51289
#        76789
#        95344
#        114441
#        130351
#        148164
#        161128
#        173771
#
# Disc length: 2569 seconds
#
# Revision: 2
# Processed by: cddbd v1.5.2PL0 Copyright (c) Steve Scherf et al.
# Submitted via: ExactAudioCopy v1.3
#
DISCID=8c0a070b
DTITLE=Ryan McGarvey - The Road Chosen
DYEAR=2014
DGENRE=Blues Rock
TTITLE0=Memphis
TTITLE1=Fading Away
TTITLE2=Little Red Riding Hood
TTITLE3=My Heart To You
TTITLE4=Firework Eyes
TTITLE5=Burnin' Alive
TTITLE6=Goodbye Blues
TTITLE7=Always and Forever
TTITLE8=Wish I Was Your Man
TTITLE9=Mean Thing
TTITLE10=To An End
EXTD=
EXTT0=
EXTT1=
EXTT2=
EXTT3=
EXTT4=
EXTT5=
EXTT6=
EXTT7=
EXTT8=
EXTT9=
EXTT10=
PLAYORDER=
